<?xml version="1.0" encoding="UTF-8" standalone="no"?>
<svg xmlns="http://www.w3.org/2000/svg"
   xmlns:dc="http://purl.org/dc/elements/1.1/"
   xmlns:cc="http://creativecommons.org/ns#"
   xmlns:rdf="http://www.w3.org/1999/02/22-rdf-syntax-ns#"
   version="1.0" width="600" height="660">
  <metadata>
    <rdf:RDF>
      <cc:Work rdf:about="">
        <dc:format>image/svg+xml</dc:format>
        <dc:type rdf:resource="http://purl.org/dc/dcmitype/StillImage"/>
      </cc:Work>
    </rdf:RDF>
  </metadata>
  <path
     d="M 300,658.5 C 300,658.5 598.50001,546.17969 598.50001,260.72817 C 598.50001,-24.723354 598.50001,2.1764765 598.50001,2.1764765 L 1.5,2.1764765 L 1.5,260.72817 C 1.5,546.17969 300,658.5 300,658.5 z "
     style="fill:#ffffff;fill-opacity:1;fill-rule:evenodd;stroke:none"/>
  <g style="fill:#be0a2f;fill-opacity:1;fill-rule:evenodd;stroke:none">
    <path d="M 46.15,439.5754 C 58.788707,464.54551 75.708978,485.8457 92.3,507.42811 L 92.3,162.0524 L 46.15,162.0524 L 46.15,439.5754 z "/>
    <path d="M 138.46,556.17065 C 152.81983,570.51935 168.51123,582.20491 184.61,593.07572 L 184.61,158.64816 L 138.46,158.64816 L 138.46,556.17065 z "/>
    <path d="M 230.76469,623.79869 C 248.29438,636.34363 259.97458,640.6914 276.94869,648.93621 L 276.91,160.5437 L 230.76,160.5437 L 230.76469,623.79869 z "/>
    <path d="M 323.046,648.32623 C 344.95235,638.76905 355.14604,633.34531 369.38474,624.41174 L 369.19131,158.45627 L 323.04131,158.45627 L 323.046,648.32623 z "/>
    <path d="M 415.38141,593.725 C 434.77118,580.88532 449.81788,566.86387 461.54,556.07022 L 461.34657,148.91527 L 415.19657,148.91527 L 415.38141,593.725 z "/>
    <path d="M 507.68336,508.74771 C 523.13414,491.53137 547.01621,453.76656 553.59576,440.34691 L 553.84,146.98506 L 507.69,146.98506 L 507.68336,508.74771 z "/>
  </g>
  <path
     d="M 1.4224138,173.31565 L 1.7506631,1.969495 L 598.72679,2.4071608 L 598.72679,173.31565 L 1.4224138,173.31565 z "
     style="fill:#002768;fill-opacity:1;fill-rule:evenodd;stroke:none"/>
  <path
     d="M 299.99999,658.50028 C 299.99999,658.50028 1.5,546.17992 1.5,260.72828 C 1.5,-24.723336 1.5,2.1764957 1.5,2.1764957 L 598.49999,2.1764957 L 598.49999,260.72828 C 598.49999,546.17992 299.99999,658.50028 299.99999,658.50028 z "
     style="opacity:1;fill:none;stroke:#000000;stroke-width:3.00000048;stroke-linecap:butt;stroke-linejoin:miter;stroke-miterlimit:4;stroke-dasharray:none;stroke-opacity:1"/>
</svg>
